solid OpenSCAD_Model
  facet normal -1 0 0
    outer loop
      vertex -15.85 -15.85 19.2898
      vertex -15.85 15.85 1.90735e-07
      vertex -15.85 -15.85 1.90735e-07
    endloop
  endfacet
  facet normal -1 0 0
    outer loop
      vertex -15.85 15.85 1.90735e-07
      vertex -15.85 -15.85 19.2898
      vertex -15.85 15.85 38.31
    endloop
  endfacet
  facet normal 1 -0 0
    outer loop
      vertex 15.85 -15.85 19.2898
      vertex 15.85 15.85 1.90735e-07
      vertex 15.85 15.85 38.31
    endloop
  endfacet
  facet normal 1 0 0
    outer loop
      vertex 15.85 15.85 1.90735e-07
      vertex 15.85 -15.85 19.2898
      vertex 15.85 -15.85 1.90735e-07
    endloop
  endfacet
  facet normal -0 0 -1
    outer loop
      vertex -6.825 -12.9363 1.90735e-07
      vertex -9.175 -14.45 1.90735e-07
      vertex -9.175 -12.9363 1.90735e-07
    endloop
  endfacet
  facet normal 0 0 -1
    outer loop
      vertex -6.825 12.9363 1.90735e-07
      vertex -9.175 12.9363 1.90735e-07
      vertex -6.825 14.45 1.90735e-07
    endloop
  endfacet
  facet normal 0 0 -1
    outer loop
      vertex 9.175 12.9363 1.90735e-07
      vertex 6.825 12.9363 1.90735e-07
      vertex 9.175 14.45 1.90735e-07
    endloop
  endfacet
  facet normal 0 0 -1
    outer loop
      vertex 12.9363 6.825 1.90735e-07
      vertex 14.45 9.175 1.90735e-07
      vertex 14.45 6.825 1.90735e-07
    endloop
  endfacet
  facet normal -0 0 -1
    outer loop
      vertex 14.45 9.175 1.90735e-07
      vertex 12.9363 6.825 1.90735e-07
      vertex 12.9363 9.175 1.90735e-07
    endloop
  endfacet
  facet normal 0 0 -1
    outer loop
      vertex 12.9363 -9.175 1.90735e-07
      vertex 14.45 -6.825 1.90735e-07
      vertex 14.45 -9.175 1.90735e-07
    endloop
  endfacet
  facet normal -0 0 -1
    outer loop
      vertex 14.45 -6.825 1.90735e-07
      vertex 12.9363 -9.175 1.90735e-07
      vertex 12.9363 -6.825 1.90735e-07
    endloop
  endfacet
  facet normal 0 0 -1
    outer loop
      vertex 14.45 -9.175 1.90735e-07
      vertex 15.85 -15.85 1.90735e-07
      vertex 14.45 -14.45 1.90735e-07
    endloop
  endfacet
  facet normal 0 0 -1
    outer loop
      vertex 15.85 -15.85 1.90735e-07
      vertex 9.175 -14.45 1.90735e-07
      vertex 14.45 -14.45 1.90735e-07
    endloop
  endfacet
  facet normal 0 0 -1
    outer loop
      vertex 9.175 -14.45 1.90735e-07
      vertex 6.825 -14.45 1.90735e-07
      vertex 9.175 -12.9363 1.90735e-07
    endloop
  endfacet
  facet normal 0 0 -1
    outer loop
      vertex 15.85 -15.85 1.90735e-07
      vertex 6.825 -14.45 1.90735e-07
      vertex 9.175 -14.45 1.90735e-07
    endloop
  endfacet
  facet normal 0 0 -1
    outer loop
      vertex 15.85 -15.85 1.90735e-07
      vertex -6.825 -14.45 1.90735e-07
      vertex 6.825 -14.45 1.90735e-07
    endloop
  endfacet
  facet normal 0 0 -1
    outer loop
      vertex -6.825 -14.45 1.90735e-07
      vertex -9.175 -14.45 1.90735e-07
      vertex -6.825 -12.9363 1.90735e-07
    endloop
  endfacet
  facet normal 0 0 -1
    outer loop
      vertex -15.85 -15.85 1.90735e-07
      vertex -6.825 -14.45 1.90735e-07
      vertex 15.85 -15.85 1.90735e-07
    endloop
  endfacet
  facet normal -0 0 -1
    outer loop
      vertex -6.825 -14.45 1.90735e-07
      vertex -15.85 -15.85 1.90735e-07
      vertex -9.175 -14.45 1.90735e-07
    endloop
  endfacet
  facet normal 0 0 -1
    outer loop
      vertex -15.85 -15.85 1.90735e-07
      vertex -14.45 -9.175 1.90735e-07
      vertex -14.45 -14.45 1.90735e-07
    endloop
  endfacet
  facet normal -0 0 -1
    outer loop
      vertex -14.45 -9.175 1.90735e-07
      vertex -15.85 -15.85 1.90735e-07
      vertex -14.45 -6.825 1.90735e-07
    endloop
  endfacet
  facet normal -0 0 -1
    outer loop
      vertex -14.45 -6.825 1.90735e-07
      vertex -15.85 -15.85 1.90735e-07
      vertex -14.45 6.825 1.90735e-07
    endloop
  endfacet
  facet normal 0 0 -1
    outer loop
      vertex -15.85 15.85 1.90735e-07
      vertex -14.45 6.825 1.90735e-07
      vertex -15.85 -15.85 1.90735e-07
    endloop
  endfacet
  facet normal 0 0 -1
    outer loop
      vertex -14.45 6.825 1.90735e-07
      vertex -15.85 15.85 1.90735e-07
      vertex -14.45 9.175 1.90735e-07
    endloop
  endfacet
  facet normal -0 0 -1
    outer loop
      vertex -9.175 -14.45 1.90735e-07
      vertex -15.85 -15.85 1.90735e-07
      vertex -14.45 -14.45 1.90735e-07
    endloop
  endfacet
  facet normal 0 0 -1
    outer loop
      vertex 14.45 -6.825 1.90735e-07
      vertex 15.85 -15.85 1.90735e-07
      vertex 14.45 -9.175 1.90735e-07
    endloop
  endfacet
  facet normal 0 0 -1
    outer loop
      vertex 15.85 -15.85 1.90735e-07
      vertex 14.45 -6.825 1.90735e-07
      vertex 15.85 15.85 1.90735e-07
    endloop
  endfacet
  facet normal 0 0 -1
    outer loop
      vertex 14.45 6.825 1.90735e-07
      vertex 15.85 15.85 1.90735e-07
      vertex 14.45 -6.825 1.90735e-07
    endloop
  endfacet
  facet normal 0 0 -1
    outer loop
      vertex 14.45 9.175 1.90735e-07
      vertex 15.85 15.85 1.90735e-07
      vertex 14.45 6.825 1.90735e-07
    endloop
  endfacet
  facet normal 0 0 -1
    outer loop
      vertex 14.45 14.45 1.90735e-07
      vertex 15.85 15.85 1.90735e-07
      vertex 14.45 9.175 1.90735e-07
    endloop
  endfacet
  facet normal 0 0 -1
    outer loop
      vertex 9.175 14.45 1.90735e-07
      vertex 15.85 15.85 1.90735e-07
      vertex 14.45 14.45 1.90735e-07
    endloop
  endfacet
  facet normal 0 0 -1
    outer loop
      vertex 6.825 14.45 1.90735e-07
      vertex 9.175 14.45 1.90735e-07
      vertex 6.825 12.9363 1.90735e-07
    endloop
  endfacet
  facet normal 0 0 -1
    outer loop
      vertex 6.825 14.45 1.90735e-07
      vertex 15.85 15.85 1.90735e-07
      vertex 9.175 14.45 1.90735e-07
    endloop
  endfacet
  facet normal 0 0 -1
    outer loop
      vertex -6.825 14.45 1.90735e-07
      vertex 15.85 15.85 1.90735e-07
      vertex 6.825 14.45 1.90735e-07
    endloop
  endfacet
  facet normal 0 0 -1
    outer loop
      vertex -9.175 14.45 1.90735e-07
      vertex -6.825 14.45 1.90735e-07
      vertex -9.175 12.9363 1.90735e-07
    endloop
  endfacet
  facet normal 0 0 -1
    outer loop
      vertex -15.85 15.85 1.90735e-07
      vertex -6.825 14.45 1.90735e-07
      vertex -9.175 14.45 1.90735e-07
    endloop
  endfacet
  facet normal 0 0 -1
    outer loop
      vertex -15.85 15.85 1.90735e-07
      vertex -9.175 14.45 1.90735e-07
      vertex -14.45 14.45 1.90735e-07
    endloop
  endfacet
  facet normal 0 0 -1
    outer loop
      vertex -6.825 14.45 1.90735e-07
      vertex -15.85 15.85 1.90735e-07
      vertex 15.85 15.85 1.90735e-07
    endloop
  endfacet
  facet normal 0 0 -1
    outer loop
      vertex -14.45 9.175 1.90735e-07
      vertex -15.85 15.85 1.90735e-07
      vertex -14.45 14.45 1.90735e-07
    endloop
  endfacet
  facet normal -0 0 -1
    outer loop
      vertex 9.175 -12.9363 1.90735e-07
      vertex 6.825 -14.45 1.90735e-07
      vertex 6.825 -12.9363 1.90735e-07
    endloop
  endfacet
  facet normal 0 0 -1
    outer loop
      vertex -14.45 -9.175 1.90735e-07
      vertex -12.9363 -6.825 1.90735e-07
      vertex -12.9363 -9.175 1.90735e-07
    endloop
  endfacet
  facet normal -0 0 -1
    outer loop
      vertex -12.9363 -6.825 1.90735e-07
      vertex -14.45 -9.175 1.90735e-07
      vertex -14.45 -6.825 1.90735e-07
    endloop
  endfacet
  facet normal 0 0 -1
    outer loop
      vertex -14.45 6.825 1.90735e-07
      vertex -12.9363 9.175 1.90735e-07
      vertex -12.9363 6.825 1.90735e-07
    endloop
  endfacet
  facet normal -0 0 -1
    outer loop
      vertex -12.9363 9.175 1.90735e-07
      vertex -14.45 6.825 1.90735e-07
      vertex -14.45 9.175 1.90735e-07
    endloop
  endfacet
  facet normal 0 -1 0
    outer loop
      vertex -15.85 -15.85 19.2898
      vertex -13.7342 -15.85 19.0115
      vertex -13.7783 -15.85 19.2898
    endloop
  endfacet
  facet normal 0 -1 0
    outer loop
      vertex -15.85 -15.85 19.2898
      vertex -13.3148 -15.85 16.3635
      vertex -13.7342 -15.85 19.0115
    endloop
  endfacet
  facet normal 0 -1 0
    outer loop
      vertex -15.85 -15.85 1.90735e-07
      vertex -13.3148 -15.85 16.3635
      vertex -15.85 -15.85 19.2898
    endloop
  endfacet
  facet normal 0 -1 -0
    outer loop
      vertex -3.05968 -15.85 7.17427
      vertex -15.85 -15.85 1.90735e-07
      vertex 0 -15.85 6.68966
    endloop
  endfacet
  facet normal 0 -1 -0
    outer loop
      vertex -4.32624 -15.85 7.37488
      vertex -15.85 -15.85 1.90735e-07
      vertex -3.05968 -15.85 7.17427
    endloop
  endfacet
  facet normal 0 -1 -0
    outer loop
      vertex -8.22899 -15.85 9.36345
      vertex -15.85 -15.85 1.90735e-07
      vertex -4.32624 -15.85 7.37488
    endloop
  endfacet
  facet normal 0 -1 -0
    outer loop
      vertex -11.3262 -15.85 12.4607
      vertex -15.85 -15.85 1.90735e-07
      vertex -8.22899 -15.85 9.36345
    endloop
  endfacet
  facet normal 0 -1 -0
    outer loop
      vertex -13.3148 -15.85 16.3635
      vertex -15.85 -15.85 1.90735e-07
      vertex -11.3262 -15.85 12.4607
    endloop
  endfacet
  facet normal 0 -1 0
    outer loop
      vertex 13.7342 -15.85 19.0115
      vertex 15.85 -15.85 19.2898
      vertex 13.7783 -15.85 19.2898
    endloop
  endfacet
  facet normal 0 -1 0
    outer loop
      vertex 13.3148 -15.85 16.3635
      vertex 15.85 -15.85 19.2898
      vertex 13.7342 -15.85 19.0115
    endloop
  endfacet
  facet normal 0 -1 0
    outer loop
      vertex 15.85 -15.85 1.90735e-07
      vertex 13.3148 -15.85 16.3635
      vertex 11.3262 -15.85 12.4607
    endloop
  endfacet
  facet normal 0 -1 0
    outer loop
      vertex 15.85 -15.85 1.90735e-07
      vertex 0 -15.85 6.68966
      vertex -15.85 -15.85 1.90735e-07
    endloop
  endfacet
  facet normal 0 -1 0
    outer loop
      vertex 0 -15.85 6.68966
      vertex 15.85 -15.85 1.90735e-07
      vertex 3.05968 -15.85 7.17427
    endloop
  endfacet
  facet normal 0 -1 0
    outer loop
      vertex 13.3148 -15.85 16.3635
      vertex 15.85 -15.85 1.90735e-07
      vertex 15.85 -15.85 19.2898
    endloop
  endfacet
  facet normal 0 -1 0
    outer loop
      vertex 8.22899 -15.85 9.36345
      vertex 15.85 -15.85 1.90735e-07
      vertex 11.3262 -15.85 12.4607
    endloop
  endfacet
  facet normal 0 -1 0
    outer loop
      vertex 4.32624 -15.85 7.37488
      vertex 15.85 -15.85 1.90735e-07
      vertex 8.22899 -15.85 9.36345
    endloop
  endfacet
  facet normal 0 -1 0
    outer loop
      vertex 3.05968 -15.85 7.17427
      vertex 15.85 -15.85 1.90735e-07
      vertex 4.32624 -15.85 7.37488
    endloop
  endfacet
  facet normal 0 1 0
    outer loop
      vertex 15.85 15.85 38.31
      vertex 13.3517 15.85 35.6167
      vertex 13.7783 15.85 38.31
    endloop
  endfacet
  facet normal 0 1 0
    outer loop
      vertex 15.85 15.85 38.31
      vertex 13.3148 15.85 35.3837
      vertex 13.3517 15.85 35.6167
    endloop
  endfacet
  facet normal 0 1 0
    outer loop
      vertex 15.85 15.85 38.31
      vertex 11.3262 15.85 31.4809
      vertex 13.3148 15.85 35.3837
    endloop
  endfacet
  facet normal 0 1 0
    outer loop
      vertex 0.574402 15.85 25.8008
      vertex 15.85 15.85 1.90735e-07
      vertex 0 15.85 25.7098
    endloop
  endfacet
  facet normal 0 1 0
    outer loop
      vertex 4.32624 15.85 26.3951
      vertex 15.85 15.85 1.90735e-07
      vertex 0.574402 15.85 25.8008
    endloop
  endfacet
  facet normal 0 1 0
    outer loop
      vertex 8.22899 15.85 28.3836
      vertex 15.85 15.85 1.90735e-07
      vertex 4.32624 15.85 26.3951
    endloop
  endfacet
  facet normal 0 1 0
    outer loop
      vertex 11.3262 15.85 31.4809
      vertex 15.85 15.85 1.90735e-07
      vertex 8.22899 15.85 28.3836
    endloop
  endfacet
  facet normal 0 1 -0
    outer loop
      vertex 15.85 15.85 1.90735e-07
      vertex 11.3262 15.85 31.4809
      vertex 15.85 15.85 38.31
    endloop
  endfacet
  facet normal 0 1 0
    outer loop
      vertex -13.3517 15.85 35.6167
      vertex -15.85 15.85 38.31
      vertex -13.7783 15.85 38.31
    endloop
  endfacet
  facet normal 0 1 0
    outer loop
      vertex -13.3148 15.85 35.3837
      vertex -15.85 15.85 38.31
      vertex -13.3517 15.85 35.6167
    endloop
  endfacet
  facet normal 0 1 0
    outer loop
      vertex -11.3262 15.85 31.4809
      vertex -15.85 15.85 38.31
      vertex -13.3148 15.85 35.3837
    endloop
  endfacet
  facet normal 0 1 0
    outer loop
      vertex -15.85 15.85 1.90735e-07
      vertex 0 15.85 25.7098
      vertex 15.85 15.85 1.90735e-07
    endloop
  endfacet
  facet normal 0 1 0
    outer loop
      vertex 0 15.85 25.7098
      vertex -15.85 15.85 1.90735e-07
      vertex -0.574402 15.85 25.8008
    endloop
  endfacet
  facet normal 0 1 0
    outer loop
      vertex -0.574402 15.85 25.8008
      vertex -15.85 15.85 1.90735e-07
      vertex -4.32624 15.85 26.3951
    endloop
  endfacet
  facet normal 0 1 0
    outer loop
      vertex -4.32624 15.85 26.3951
      vertex -15.85 15.85 1.90735e-07
      vertex -8.22899 15.85 28.3836
    endloop
  endfacet
  facet normal 0 1 0
    outer loop
      vertex -11.3262 15.85 31.4809
      vertex -15.85 15.85 1.90735e-07
      vertex -15.85 15.85 38.31
    endloop
  endfacet
  facet normal 0 1 0
    outer loop
      vertex -8.22899 15.85 28.3836
      vertex -15.85 15.85 1.90735e-07
      vertex -11.3262 15.85 31.4809
    endloop
  endfacet
  facet normal 1 -0 0
    outer loop
      vertex -14.45 -14.45 6
      vertex -14.45 -9.175 1.90735e-07
      vertex -14.45 -9.175 6
    endloop
  endfacet
  facet normal 1 0 0
    outer loop
      vertex -14.45 -9.175 1.90735e-07
      vertex -14.45 -14.45 6
      vertex -14.45 -14.45 1.90735e-07
    endloop
  endfacet
  facet normal 1 -0 0
    outer loop
      vertex -14.45 9.175 6
      vertex -14.45 14.45 1.90735e-07
      vertex -14.45 14.45 6
    endloop
  endfacet
  facet normal 1 0 0
    outer loop
      vertex -14.45 14.45 1.90735e-07
      vertex -14.45 9.175 6
      vertex -14.45 9.175 1.90735e-07
    endloop
  endfacet
  facet normal 1 -0 0
    outer loop
      vertex -14.45 -6.825 6
      vertex -14.45 6.825 1.90735e-07
      vertex -14.45 6.825 6
    endloop
  endfacet
  facet normal 1 0 0
    outer loop
      vertex -14.45 6.825 1.90735e-07
      vertex -14.45 -6.825 6
      vertex -14.45 -6.825 1.90735e-07
    endloop
  endfacet
  facet normal -1 0 0
    outer loop
      vertex 14.45 -14.45 1.90735e-07
      vertex 14.45 -9.175 6
      vertex 14.45 -9.175 1.90735e-07
    endloop
  endfacet
  facet normal -1 -0 0
    outer loop
      vertex 14.45 -9.175 6
      vertex 14.45 -14.45 1.90735e-07
      vertex 14.45 -14.45 6
    endloop
  endfacet
  facet normal -1 0 0
    outer loop
      vertex 14.45 9.175 1.90735e-07
      vertex 14.45 14.45 6
      vertex 14.45 14.45 1.90735e-07
    endloop
  endfacet
  facet normal -1 -0 0
    outer loop
      vertex 14.45 14.45 6
      vertex 14.45 9.175 1.90735e-07
      vertex 14.45 9.175 6
    endloop
  endfacet
  facet normal -1 0 0
    outer loop
      vertex 14.45 -6.825 1.90735e-07
      vertex 14.45 6.825 6
      vertex 14.45 6.825 1.90735e-07
    endloop
  endfacet
  facet normal -1 -0 0
    outer loop
      vertex 14.45 6.825 6
      vertex 14.45 -6.825 1.90735e-07
      vertex 14.45 -6.825 6
    endloop
  endfacet
  facet normal 0 -1 0
    outer loop
      vertex -14.45 14.45 1.90735e-07
      vertex -9.175 14.45 6
      vertex -14.45 14.45 6
    endloop
  endfacet
  facet normal 0 -1 -0
    outer loop
      vertex -9.175 14.45 6
      vertex -14.45 14.45 1.90735e-07
      vertex -9.175 14.45 1.90735e-07
    endloop
  endfacet
  facet normal 0 -1 0
    outer loop
      vertex 9.175 14.45 1.90735e-07
      vertex 14.45 14.45 6
      vertex 9.175 14.45 6
    endloop
  endfacet
  facet normal 0 -1 -0
    outer loop
      vertex 14.45 14.45 6
      vertex 9.175 14.45 1.90735e-07
      vertex 14.45 14.45 1.90735e-07
    endloop
  endfacet
  facet normal 0 -1 0
    outer loop
      vertex -6.825 14.45 1.90735e-07
      vertex 6.825 14.45 6
      vertex -6.825 14.45 6
    endloop
  endfacet
  facet normal 0 -1 -0
    outer loop
      vertex 6.825 14.45 6
      vertex -6.825 14.45 1.90735e-07
      vertex 6.825 14.45 1.90735e-07
    endloop
  endfacet
  facet normal 0 1 -0
    outer loop
      vertex -9.175 -14.45 1.90735e-07
      vertex -14.45 -14.45 6
      vertex -9.175 -14.45 6
    endloop
  endfacet
  facet normal 0 1 0
    outer loop
      vertex -14.45 -14.45 6
      vertex -9.175 -14.45 1.90735e-07
      vertex -14.45 -14.45 1.90735e-07
    endloop
  endfacet
  facet normal 0 1 -0
    outer loop
      vertex 14.45 -14.45 1.90735e-07
      vertex 9.175 -14.45 6
      vertex 14.45 -14.45 6
    endloop
  endfacet
  facet normal 0 1 0
    outer loop
      vertex 9.175 -14.45 6
      vertex 14.45 -14.45 1.90735e-07
      vertex 9.175 -14.45 1.90735e-07
    endloop
  endfacet
  facet normal 0 1 -0
    outer loop
      vertex 6.825 -14.45 1.90735e-07
      vertex -6.825 -14.45 6
      vertex 6.825 -14.45 6
    endloop
  endfacet
  facet normal 0 1 0
    outer loop
      vertex -6.825 -14.45 6
      vertex 6.825 -14.45 1.90735e-07
      vertex -6.825 -14.45 1.90735e-07
    endloop
  endfacet
  facet normal 0.951057 0.309017 0
    outer loop
      vertex 6.42736 0 0.150001
      vertex 5.19984 3.77791 1.90735e-07
      vertex 5.19984 3.77791 0.150001
    endloop
  endfacet
  facet normal 0.951057 0.309017 0
    outer loop
      vertex 5.19984 3.77791 1.90735e-07
      vertex 6.42736 0 0.150001
      vertex 6.42736 0 1.90735e-07
    endloop
  endfacet
  facet normal -0.951057 0.309017 0
    outer loop
      vertex -6.42736 0 1.90735e-07
      vertex -5.19984 3.77791 0.150001
      vertex -5.19984 3.77791 1.90735e-07
    endloop
  endfacet
  facet normal -0.951057 0.309017 0
    outer loop
      vertex -5.19984 3.77791 0.150001
      vertex -6.42736 0 1.90735e-07
      vertex -6.42736 0 0.150001
    endloop
  endfacet
  facet normal 0 0 -1
    outer loop
      vertex 5.19984 -3.77791 1.90735e-07
      vertex 5.32736 0 1.90735e-07
      vertex 6.42736 0 1.90735e-07
    endloop
  endfacet
  facet normal 0 0 -1
    outer loop
      vertex 5.19984 -3.77791 1.90735e-07
      vertex 4.30992 -3.13134 1.90735e-07
      vertex 5.32736 0 1.90735e-07
    endloop
  endfacet
  facet normal 0 0 -1
    outer loop
      vertex 1.98616 -6.11278 1.90735e-07
      vertex 4.30992 -3.13134 1.90735e-07
      vertex 5.19984 -3.77791 1.90735e-07
    endloop
  endfacet
  facet normal 0 0 -1
    outer loop
      vertex 1.98616 -6.11278 1.90735e-07
      vertex 1.64624 -5.06662 1.90735e-07
      vertex 4.30992 -3.13134 1.90735e-07
    endloop
  endfacet
  facet normal 0 0 -1
    outer loop
      vertex 1.98616 -6.11278 1.90735e-07
      vertex -1.64624 -5.06662 1.90735e-07
      vertex 1.64624 -5.06662 1.90735e-07
    endloop
  endfacet
  facet normal 0 0 -1
    outer loop
      vertex -1.98616 -6.11278 1.90735e-07
      vertex -1.64624 -5.06662 1.90735e-07
      vertex 1.98616 -6.11278 1.90735e-07
    endloop
  endfacet
  facet normal 0 0 -1
    outer loop
      vertex -1.98616 -6.11278 1.90735e-07
      vertex -4.30992 -3.13134 1.90735e-07
      vertex -1.64624 -5.06662 1.90735e-07
    endloop
  endfacet
  facet normal 0 0 -1
    outer loop
      vertex -5.19984 -3.77791 1.90735e-07
      vertex -4.30992 -3.13134 1.90735e-07
      vertex -1.98616 -6.11278 1.90735e-07
    endloop
  endfacet
  facet normal 0 0 -1
    outer loop
      vertex -5.19984 -3.77791 1.90735e-07
      vertex -5.32736 0 1.90735e-07
      vertex -4.30992 -3.13134 1.90735e-07
    endloop
  endfacet
  facet normal -0 -0 -1
    outer loop
      vertex -5.32736 0 1.90735e-07
      vertex -5.19984 -3.77791 1.90735e-07
      vertex -6.42736 0 1.90735e-07
    endloop
  endfacet
  facet normal 0 0 -1
    outer loop
      vertex 5.32736 0 1.90735e-07
      vertex 5.19984 3.77791 1.90735e-07
      vertex 6.42736 0 1.90735e-07
    endloop
  endfacet
  facet normal 0 0 -1
    outer loop
      vertex 4.30992 3.13134 1.90735e-07
      vertex 5.19984 3.77791 1.90735e-07
      vertex 5.32736 0 1.90735e-07
    endloop
  endfacet
  facet normal 0 0 -1
    outer loop
      vertex 4.30992 3.13134 1.90735e-07
      vertex 1.98616 6.11278 1.90735e-07
      vertex 5.19984 3.77791 1.90735e-07
    endloop
  endfacet
  facet normal 0 0 -1
    outer loop
      vertex 1.64624 5.06662 1.90735e-07
      vertex 1.98616 6.11278 1.90735e-07
      vertex 4.30992 3.13134 1.90735e-07
    endloop
  endfacet
  facet normal 0 0 -1
    outer loop
      vertex -1.64624 5.06662 1.90735e-07
      vertex 1.98616 6.11278 1.90735e-07
      vertex 1.64624 5.06662 1.90735e-07
    endloop
  endfacet
  facet normal 0 0 -1
    outer loop
      vertex -1.64624 5.06662 1.90735e-07
      vertex -1.98616 6.11278 1.90735e-07
      vertex 1.98616 6.11278 1.90735e-07
    endloop
  endfacet
  facet normal 0 0 -1
    outer loop
      vertex -4.30992 3.13134 1.90735e-07
      vertex -1.98616 6.11278 1.90735e-07
      vertex -1.64624 5.06662 1.90735e-07
    endloop
  endfacet
  facet normal 0 0 -1
    outer loop
      vertex -4.30992 3.13134 1.90735e-07
      vertex -5.19984 3.77791 1.90735e-07
      vertex -1.98616 6.11278 1.90735e-07
    endloop
  endfacet
  facet normal 0 0 -1
    outer loop
      vertex -5.32736 0 1.90735e-07
      vertex -5.19984 3.77791 1.90735e-07
      vertex -4.30992 3.13134 1.90735e-07
    endloop
  endfacet
  facet normal 0 0 -1
    outer loop
      vertex -5.19984 3.77791 1.90735e-07
      vertex -5.32736 0 1.90735e-07
      vertex -6.42736 0 1.90735e-07
    endloop
  endfacet
  facet normal 0 1 -0
    outer loop
      vertex 1.98616 6.11278 1.90735e-07
      vertex -1.98616 6.11278 0.150001
      vertex 1.98616 6.11278 0.150001
    endloop
  endfacet
  facet normal 0 1 0
    outer loop
      vertex -1.98616 6.11278 0.150001
      vertex 1.98616 6.11278 1.90735e-07
      vertex -1.98616 6.11278 1.90735e-07
    endloop
  endfacet
  facet normal 0.587785 0.809017 -0
    outer loop
      vertex 5.19984 3.77791 1.90735e-07
      vertex 1.98616 6.11278 0.150001
      vertex 5.19984 3.77791 0.150001
    endloop
  endfacet
  facet normal 0.587785 0.809017 0
    outer loop
      vertex 1.98616 6.11278 0.150001
      vertex 5.19984 3.77791 1.90735e-07
      vertex 1.98616 6.11278 1.90735e-07
    endloop
  endfacet
  facet normal -0.587785 0.809017 0
    outer loop
      vertex -1.98616 6.11278 1.90735e-07
      vertex -5.19984 3.77791 0.150001
      vertex -1.98616 6.11278 0.150001
    endloop
  endfacet
  facet normal -0.587785 0.809017 0
    outer loop
      vertex -5.19984 3.77791 0.150001
      vertex -1.98616 6.11278 1.90735e-07
      vertex -5.19984 3.77791 1.90735e-07
    endloop
  endfacet
  facet normal 0 -1 0
    outer loop
      vertex -1.98616 -6.11278 1.90735e-07
      vertex 1.98616 -6.11278 0.150001
      vertex -1.98616 -6.11278 0.150001
    endloop
  endfacet
  facet normal 0 -1 -0
    outer loop
      vertex 1.98616 -6.11278 0.150001
      vertex -1.98616 -6.11278 1.90735e-07
      vertex 1.98616 -6.11278 1.90735e-07
    endloop
  endfacet
  facet normal 0.951057 -0.309017 0
    outer loop
      vertex 5.19984 -3.77791 0.150001
      vertex 6.42736 0 1.90735e-07
      vertex 6.42736 0 0.150001
    endloop
  endfacet
  facet normal 0.951057 -0.309017 0
    outer loop
      vertex 6.42736 0 1.90735e-07
      vertex 5.19984 -3.77791 0.150001
      vertex 5.19984 -3.77791 1.90735e-07
    endloop
  endfacet
  facet normal -0.951057 -0.309017 0
    outer loop
      vertex -5.19984 -3.77791 1.90735e-07
      vertex -6.42736 0 0.150001
      vertex -6.42736 0 1.90735e-07
    endloop
  endfacet
  facet normal -0.951057 -0.309017 0
    outer loop
      vertex -6.42736 0 0.150001
      vertex -5.19984 -3.77791 1.90735e-07
      vertex -5.19984 -3.77791 0.150001
    endloop
  endfacet
  facet normal 0.587785 -0.809017 0
    outer loop
      vertex 1.98616 -6.11278 1.90735e-07
      vertex 5.19984 -3.77791 0.150001
      vertex 1.98616 -6.11278 0.150001
    endloop
  endfacet
  facet normal 0.587785 -0.809017 0
    outer loop
      vertex 5.19984 -3.77791 0.150001
      vertex 1.98616 -6.11278 1.90735e-07
      vertex 5.19984 -3.77791 1.90735e-07
    endloop
  endfacet
  facet normal -0.587785 -0.809017 0
    outer loop
      vertex -5.19984 -3.77791 1.90735e-07
      vertex -1.98616 -6.11278 0.150001
      vertex -5.19984 -3.77791 0.150001
    endloop
  endfacet
  facet normal -0.587785 -0.809017 -0
    outer loop
      vertex -1.98616 -6.11278 0.150001
      vertex -5.19984 -3.77791 1.90735e-07
      vertex -1.98616 -6.11278 1.90735e-07
    endloop
  endfacet
  facet normal 0.951057 0.309017 0
    outer loop
      vertex 6.62736 0 6
      vertex 5.36165 3.89546 0.150001
      vertex 5.36165 3.89546 6
    endloop
  endfacet
  facet normal 0.951057 0.309017 0
    outer loop
      vertex 5.36165 3.89546 0.150001
      vertex 6.62736 0 6
      vertex 6.62736 0 0.150001
    endloop
  endfacet
  facet normal -0.951057 0.309017 0
    outer loop
      vertex -6.62736 0 0.150001
      vertex -5.36165 3.89546 6
      vertex -5.36165 3.89546 0.150001
    endloop
  endfacet
  facet normal -0.951057 0.309017 0
    outer loop
      vertex -5.36165 3.89546 6
      vertex -6.62736 0 0.150001
      vertex -6.62736 0 6
    endloop
  endfacet
  facet normal 0 0 -1
    outer loop
      vertex 5.36165 -3.89546 0.150001
      vertex 6.42736 0 0.150001
      vertex 6.62736 0 0.150001
    endloop
  endfacet
  facet normal 0 0 -1
    outer loop
      vertex 5.36165 -3.89546 0.150001
      vertex 5.19984 -3.77791 0.150001
      vertex 6.42736 0 0.150001
    endloop
  endfacet
  facet normal 0 0 -1
    outer loop
      vertex 2.04797 -6.30299 0.150001
      vertex 5.19984 -3.77791 0.150001
      vertex 5.36165 -3.89546 0.150001
    endloop
  endfacet
  facet normal 0 0 -1
    outer loop
      vertex 2.04797 -6.30299 0.150001
      vertex 1.98616 -6.11278 0.150001
      vertex 5.19984 -3.77791 0.150001
    endloop
  endfacet
  facet normal 0 0 -1
    outer loop
      vertex 2.04797 -6.30299 0.150001
      vertex -1.98616 -6.11278 0.150001
      vertex 1.98616 -6.11278 0.150001
    endloop
  endfacet
  facet normal 0 0 -1
    outer loop
      vertex -2.04797 -6.30299 0.150001
      vertex -1.98616 -6.11278 0.150001
      vertex 2.04797 -6.30299 0.150001
    endloop
  endfacet
  facet normal 0 0 -1
    outer loop
      vertex -2.04797 -6.30299 0.150001
      vertex -5.19984 -3.77791 0.150001
      vertex -1.98616 -6.11278 0.150001
    endloop
  endfacet
  facet normal 0 0 -1
    outer loop
      vertex -5.36165 -3.89546 0.150001
      vertex -5.19984 -3.77791 0.150001
      vertex -2.04797 -6.30299 0.150001
    endloop
  endfacet
  facet normal 0 0 -1
    outer loop
      vertex -5.36165 -3.89546 0.150001
      vertex -6.42736 0 0.150001
      vertex -5.19984 -3.77791 0.150001
    endloop
  endfacet
  facet normal -0 -0 -1
    outer loop
      vertex -6.42736 0 0.150001
      vertex -5.36165 -3.89546 0.150001
      vertex -6.62736 0 0.150001
    endloop
  endfacet
  facet normal 0 0 -1
    outer loop
      vertex 6.42736 0 0.150001
      vertex 5.36165 3.89546 0.150001
      vertex 6.62736 0 0.150001
    endloop
  endfacet
  facet normal 0 0 -1
    outer loop
      vertex 5.19984 3.77791 0.150001
      vertex 5.36165 3.89546 0.150001
      vertex 6.42736 0 0.150001
    endloop
  endfacet
  facet normal 0 0 -1
    outer loop
      vertex 5.19984 3.77791 0.150001
      vertex 2.04797 6.30299 0.150001
      vertex 5.36165 3.89546 0.150001
    endloop
  endfacet
  facet normal 0 0 -1
    outer loop
      vertex 1.98616 6.11278 0.150001
      vertex 2.04797 6.30299 0.150001
      vertex 5.19984 3.77791 0.150001
    endloop
  endfacet
  facet normal 0 0 -1
    outer loop
      vertex -1.98616 6.11278 0.150001
      vertex 2.04797 6.30299 0.150001
      vertex 1.98616 6.11278 0.150001
    endloop
  endfacet
  facet normal 0 0 -1
    outer loop
      vertex -1.98616 6.11278 0.150001
      vertex -2.04797 6.30299 0.150001
      vertex 2.04797 6.30299 0.150001
    endloop
  endfacet
  facet normal 0 0 -1
    outer loop
      vertex -5.19984 3.77791 0.150001
      vertex -2.04797 6.30299 0.150001
      vertex -1.98616 6.11278 0.150001
    endloop
  endfacet
  facet normal 0 0 -1
    outer loop
      vertex -5.19984 3.77791 0.150001
      vertex -5.36165 3.89546 0.150001
      vertex -2.04797 6.30299 0.150001
    endloop
  endfacet
  facet normal 0 0 -1
    outer loop
      vertex -6.42736 0 0.150001
      vertex -5.36165 3.89546 0.150001
      vertex -5.19984 3.77791 0.150001
    endloop
  endfacet
  facet normal 0 0 -1
    outer loop
      vertex -5.36165 3.89546 0.150001
      vertex -6.42736 0 0.150001
      vertex -6.62736 0 0.150001
    endloop
  endfacet
  facet normal 0 1 -0
    outer loop
      vertex 2.04797 6.30299 0.150001
      vertex -2.04797 6.30299 6
      vertex 2.04797 6.30299 6
    endloop
  endfacet
  facet normal 0 1 0
    outer loop
      vertex -2.04797 6.30299 6
      vertex 2.04797 6.30299 0.150001
      vertex -2.04797 6.30299 0.150001
    endloop
  endfacet
  facet normal 0.587785 0.809017 -0
    outer loop
      vertex 5.36165 3.89546 0.150001
      vertex 2.04797 6.30299 6
      vertex 5.36165 3.89546 6
    endloop
  endfacet
  facet normal 0.587785 0.809017 0
    outer loop
      vertex 2.04797 6.30299 6
      vertex 5.36165 3.89546 0.150001
      vertex 2.04797 6.30299 0.150001
    endloop
  endfacet
  facet normal -0.587785 0.809017 0
    outer loop
      vertex -2.04797 6.30299 0.150001
      vertex -5.36165 3.89546 6
      vertex -2.04797 6.30299 6
    endloop
  endfacet
  facet normal -0.587785 0.809017 0
    outer loop
      vertex -5.36165 3.89546 6
      vertex -2.04797 6.30299 0.150001
      vertex -5.36165 3.89546 0.150001
    endloop
  endfacet
  facet normal 0 -1 0
    outer loop
      vertex -2.04797 -6.30299 0.150001
      vertex 2.04797 -6.30299 6
      vertex -2.04797 -6.30299 6
    endloop
  endfacet
  facet normal 0 -1 -0
    outer loop
      vertex 2.04797 -6.30299 6
      vertex -2.04797 -6.30299 0.150001
      vertex 2.04797 -6.30299 0.150001
    endloop
  endfacet
  facet normal -0.951057 -0.309017 0
    outer loop
      vertex -5.36165 -3.89546 0.150001
      vertex -6.62736 0 6
      vertex -6.62736 0 0.150001
    endloop
  endfacet
  facet normal -0.951057 -0.309017 0
    outer loop
      vertex -6.62736 0 6
      vertex -5.36165 -3.89546 0.150001
      vertex -5.36165 -3.89546 6
    endloop
  endfacet
  facet normal 0.587785 -0.809017 0
    outer loop
      vertex 2.04797 -6.30299 0.150001
      vertex 5.36165 -3.89546 6
      vertex 2.04797 -6.30299 6
    endloop
  endfacet
  facet normal 0.587785 -0.809017 0
    outer loop
      vertex 5.36165 -3.89546 6
      vertex 2.04797 -6.30299 0.150001
      vertex 5.36165 -3.89546 0.150001
    endloop
  endfacet
  facet normal -0.587785 -0.809017 0
    outer loop
      vertex -5.36165 -3.89546 0.150001
      vertex -2.04797 -6.30299 6
      vertex -5.36165 -3.89546 6
    endloop
  endfacet
  facet normal -0.587785 -0.809017 -0
    outer loop
      vertex -2.04797 -6.30299 6
      vertex -5.36165 -3.89546 0.150001
      vertex -2.04797 -6.30299 0.150001
    endloop
  endfacet
  facet normal 0.951057 -0.309017 0
    outer loop
      vertex 5.36165 -3.89546 6
      vertex 6.62736 0 0.150001
      vertex 6.62736 0 6
    endloop
  endfacet
  facet normal 0.951057 -0.309017 0
    outer loop
      vertex 6.62736 0 0.150001
      vertex 5.36165 -3.89546 6
      vertex 5.36165 -3.89546 0.150001
    endloop
  endfacet
  facet normal -0.951057 -0.309017 0
    outer loop
      vertex 5.32736 0 1.90735e-07
      vertex 4.30992 3.13134 6
      vertex 4.30992 3.13134 1.90735e-07
    endloop
  endfacet
  facet normal -0.951057 -0.309017 0
    outer loop
      vertex 4.30992 3.13134 6
      vertex 5.32736 0 1.90735e-07
      vertex 5.32736 0 6
    endloop
  endfacet
  facet normal 0.951057 -0.309017 0
    outer loop
      vertex -5.32736 0 6
      vertex -4.30992 3.13134 1.90735e-07
      vertex -4.30992 3.13134 6
    endloop
  endfacet
  facet normal 0.951057 -0.309017 0
    outer loop
      vertex -4.30992 3.13134 1.90735e-07
      vertex -5.32736 0 6
      vertex -5.32736 0 1.90735e-07
    endloop
  endfacet
  facet normal 0 -1 0
    outer loop
      vertex -1.64624 5.06662 1.90735e-07
      vertex 1.64624 5.06662 6
      vertex -1.64624 5.06662 6
    endloop
  endfacet
  facet normal 0 -1 -0
    outer loop
      vertex 1.64624 5.06662 6
      vertex -1.64624 5.06662 1.90735e-07
      vertex 1.64624 5.06662 1.90735e-07
    endloop
  endfacet
  facet normal -0.587785 -0.809017 0
    outer loop
      vertex 1.64624 5.06662 1.90735e-07
      vertex 4.30992 3.13134 6
      vertex 1.64624 5.06662 6
    endloop
  endfacet
  facet normal -0.587785 -0.809017 -0
    outer loop
      vertex 4.30992 3.13134 6
      vertex 1.64624 5.06662 1.90735e-07
      vertex 4.30992 3.13134 1.90735e-07
    endloop
  endfacet
  facet normal 0.587785 -0.809017 0
    outer loop
      vertex -4.30992 3.13134 1.90735e-07
      vertex -1.64624 5.06662 6
      vertex -4.30992 3.13134 6
    endloop
  endfacet
  facet normal 0.587785 -0.809017 0
    outer loop
      vertex -1.64624 5.06662 6
      vertex -4.30992 3.13134 1.90735e-07
      vertex -1.64624 5.06662 1.90735e-07
    endloop
  endfacet
  facet normal 0 1 -0
    outer loop
      vertex 1.64624 -5.06662 1.90735e-07
      vertex -1.64624 -5.06662 6
      vertex 1.64624 -5.06662 6
    endloop
  endfacet
  facet normal 0 1 0
    outer loop
      vertex -1.64624 -5.06662 6
      vertex 1.64624 -5.06662 1.90735e-07
      vertex -1.64624 -5.06662 1.90735e-07
    endloop
  endfacet
  facet normal -0.951057 0.309017 0
    outer loop
      vertex 4.30992 -3.13134 1.90735e-07
      vertex 5.32736 0 6
      vertex 5.32736 0 1.90735e-07
    endloop
  endfacet
  facet normal -0.951057 0.309017 0
    outer loop
      vertex 5.32736 0 6
      vertex 4.30992 -3.13134 1.90735e-07
      vertex 4.30992 -3.13134 6
    endloop
  endfacet
  facet normal -0.587785 0.809017 0
    outer loop
      vertex 4.30992 -3.13134 1.90735e-07
      vertex 1.64624 -5.06662 6
      vertex 4.30992 -3.13134 6
    endloop
  endfacet
  facet normal -0.587785 0.809017 0
    outer loop
      vertex 1.64624 -5.06662 6
      vertex 4.30992 -3.13134 1.90735e-07
      vertex 1.64624 -5.06662 1.90735e-07
    endloop
  endfacet
  facet normal 0.587785 0.809017 -0
    outer loop
      vertex -1.64624 -5.06662 1.90735e-07
      vertex -4.30992 -3.13134 6
      vertex -1.64624 -5.06662 6
    endloop
  endfacet
  facet normal 0.587785 0.809017 0
    outer loop
      vertex -4.30992 -3.13134 6
      vertex -1.64624 -5.06662 1.90735e-07
      vertex -4.30992 -3.13134 1.90735e-07
    endloop
  endfacet
  facet normal 0.951057 0.309017 0
    outer loop
      vertex -4.30992 -3.13134 6
      vertex -5.32736 0 1.90735e-07
      vertex -5.32736 0 6
    endloop
  endfacet
  facet normal 0.951057 0.309017 0
    outer loop
      vertex -5.32736 0 1.90735e-07
      vertex -4.30992 -3.13134 6
      vertex -4.30992 -3.13134 1.90735e-07
    endloop
  endfacet
  facet normal 0 -1 0
    outer loop
      vertex -14.45 6.825 6
      vertex -12.9363 6.825 0.305
      vertex -12.8363 6.825 6
    endloop
  endfacet
  facet normal 0 -1 0
    outer loop
      vertex -14.45 6.825 1.90735e-07
      vertex -12.9363 6.825 0.305
      vertex -14.45 6.825 6
    endloop
  endfacet
  facet normal 0 -1 -0
    outer loop
      vertex -12.9363 6.825 0.305
      vertex -14.45 6.825 1.90735e-07
      vertex -12.9363 6.825 1.90735e-07
    endloop
  endfacet
  facet normal 0 -1 -0
    outer loop
      vertex -12.8363 6.825 6
      vertex -12.9363 6.825 0.305
      vertex -12.8363 6.825 0.305
    endloop
  endfacet
  facet normal 0 -1 0
    outer loop
      vertex 12.9363 6.825 0.305
      vertex 12.8363 6.825 6
      vertex 12.8363 6.825 0.305
    endloop
  endfacet
  facet normal 0 -1 0
    outer loop
      vertex 12.8363 6.825 6
      vertex 12.9363 6.825 0.305
      vertex 14.45 6.825 6
    endloop
  endfacet
  facet normal 0 -1 0
    outer loop
      vertex 14.45 6.825 1.90735e-07
      vertex 12.9363 6.825 0.305
      vertex 12.9363 6.825 1.90735e-07
    endloop
  endfacet
  facet normal 0 -1 0
    outer loop
      vertex 12.9363 6.825 0.305
      vertex 14.45 6.825 1.90735e-07
      vertex 14.45 6.825 6
    endloop
  endfacet
  facet normal 0 1 0
    outer loop
      vertex -12.9363 9.175 0.305
      vertex -12.8363 9.175 6
      vertex -12.8363 9.175 0.305
    endloop
  endfacet
  facet normal 0 1 0
    outer loop
      vertex -12.8363 9.175 6
      vertex -12.9363 9.175 0.305
      vertex -14.45 9.175 6
    endloop
  endfacet
  facet normal 0 1 0
    outer loop
      vertex -14.45 9.175 1.90735e-07
      vertex -12.9363 9.175 0.305
      vertex -12.9363 9.175 1.90735e-07
    endloop
  endfacet
  facet normal 0 1 0
    outer loop
      vertex -12.9363 9.175 0.305
      vertex -14.45 9.175 1.90735e-07
      vertex -14.45 9.175 6
    endloop
  endfacet
  facet normal 0 1 0
    outer loop
      vertex 14.45 9.175 6
      vertex 12.9363 9.175 0.305
      vertex 12.8363 9.175 6
    endloop
  endfacet
  facet normal 0 1 -0
    outer loop
      vertex 14.45 9.175 1.90735e-07
      vertex 12.9363 9.175 0.305
      vertex 14.45 9.175 6
    endloop
  endfacet
  facet normal 0 1 0
    outer loop
      vertex 12.9363 9.175 0.305
      vertex 14.45 9.175 1.90735e-07
      vertex 12.9363 9.175 1.90735e-07
    endloop
  endfacet
  facet normal 0 1 0
    outer loop
      vertex 12.8363 9.175 6
      vertex 12.9363 9.175 0.305
      vertex 12.8363 9.175 0.305
    endloop
  endfacet
  facet normal 0 1 0
    outer loop
      vertex -12.9363 -6.825 0.305
      vertex -12.8363 -6.825 6
      vertex -12.8363 -6.825 0.305
    endloop
  endfacet
  facet normal 0 1 0
    outer loop
      vertex -12.8363 -6.825 6
      vertex -12.9363 -6.825 0.305
      vertex -14.45 -6.825 6
    endloop
  endfacet
  facet normal 0 1 0
    outer loop
      vertex -14.45 -6.825 1.90735e-07
      vertex -12.9363 -6.825 0.305
      vertex -12.9363 -6.825 1.90735e-07
    endloop
  endfacet
  facet normal 0 1 0
    outer loop
      vertex -12.9363 -6.825 0.305
      vertex -14.45 -6.825 1.90735e-07
      vertex -14.45 -6.825 6
    endloop
  endfacet
  facet normal 0 1 0
    outer loop
      vertex 14.45 -6.825 6
      vertex 12.9363 -6.825 0.305
      vertex 12.8363 -6.825 6
    endloop
  endfacet
  facet normal 0 1 -0
    outer loop
      vertex 14.45 -6.825 1.90735e-07
      vertex 12.9363 -6.825 0.305
      vertex 14.45 -6.825 6
    endloop
  endfacet
  facet normal 0 1 0
    outer loop
      vertex 12.9363 -6.825 0.305
      vertex 14.45 -6.825 1.90735e-07
      vertex 12.9363 -6.825 1.90735e-07
    endloop
  endfacet
  facet normal 0 1 0
    outer loop
      vertex 12.8363 -6.825 6
      vertex 12.9363 -6.825 0.305
      vertex 12.8363 -6.825 0.305
    endloop
  endfacet
  facet normal 0 -1 0
    outer loop
      vertex -14.45 -9.175 6
      vertex -12.9363 -9.175 0.305
      vertex -12.8363 -9.175 6
    endloop
  endfacet
  facet normal 0 -1 0
    outer loop
      vertex -14.45 -9.175 1.90735e-07
      vertex -12.9363 -9.175 0.305
      vertex -14.45 -9.175 6
    endloop
  endfacet
  facet normal 0 -1 -0
    outer loop
      vertex -12.9363 -9.175 0.305
      vertex -14.45 -9.175 1.90735e-07
      vertex -12.9363 -9.175 1.90735e-07
    endloop
  endfacet
  facet normal 0 -1 -0
    outer loop
      vertex -12.8363 -9.175 6
      vertex -12.9363 -9.175 0.305
      vertex -12.8363 -9.175 0.305
    endloop
  endfacet
  facet normal 0 -1 0
    outer loop
      vertex 12.9363 -9.175 0.305
      vertex 12.8363 -9.175 6
      vertex 12.8363 -9.175 0.305
    endloop
  endfacet
  facet normal 0 -1 0
    outer loop
      vertex 12.8363 -9.175 6
      vertex 12.9363 -9.175 0.305
      vertex 14.45 -9.175 6
    endloop
  endfacet
  facet normal 0 -1 0
    outer loop
      vertex 14.45 -9.175 1.90735e-07
      vertex 12.9363 -9.175 0.305
      vertex 12.9363 -9.175 1.90735e-07
    endloop
  endfacet
  facet normal 0 -1 0
    outer loop
      vertex 12.9363 -9.175 0.305
      vertex 14.45 -9.175 1.90735e-07
      vertex 14.45 -9.175 6
    endloop
  endfacet
  facet normal -1 0 0
    outer loop
      vertex 6.825 12.9363 0.305
      vertex 6.825 14.45 1.90735e-07
      vertex 6.825 12.9363 1.90735e-07
    endloop
  endfacet
  facet normal -1 0 0
    outer loop
      vertex 6.825 14.45 1.90735e-07
      vertex 6.825 12.9363 0.305
      vertex 6.825 14.45 6
    endloop
  endfacet
  facet normal -1 0 0
    outer loop
      vertex 6.825 12.8363 6
      vertex 6.825 12.9363 0.305
      vertex 6.825 12.8363 0.305
    endloop
  endfacet
  facet normal -1 0 0
    outer loop
      vertex 6.825 12.9363 0.305
      vertex 6.825 12.8363 6
      vertex 6.825 14.45 6
    endloop
  endfacet
  facet normal -1 0 0
    outer loop
      vertex 6.825 -12.9363 1.90735e-07
      vertex 6.825 -14.45 1.90735e-07
      vertex 6.825 -12.9363 0.305
    endloop
  endfacet
  facet normal -1 0 0
    outer loop
      vertex 6.825 -12.9363 0.305
      vertex 6.825 -12.8363 6
      vertex 6.825 -12.8363 0.305
    endloop
  endfacet
  facet normal -1 0 0
    outer loop
      vertex 6.825 -14.45 6
      vertex 6.825 -12.9363 0.305
      vertex 6.825 -14.45 1.90735e-07
    endloop
  endfacet
  facet normal -1 0 0
    outer loop
      vertex 6.825 -12.9363 0.305
      vertex 6.825 -14.45 6
      vertex 6.825 -12.8363 6
    endloop
  endfacet
  facet normal 1 0 0
    outer loop
      vertex 9.175 14.45 6
      vertex 9.175 12.9363 0.305
      vertex 9.175 14.45 1.90735e-07
    endloop
  endfacet
  facet normal 1 -0 0
    outer loop
      vertex 9.175 12.8363 6
      vertex 9.175 12.9363 0.305
      vertex 9.175 14.45 6
    endloop
  endfacet
  facet normal 1 0 0
    outer loop
      vertex 9.175 12.9363 0.305
      vertex 9.175 12.8363 6
      vertex 9.175 12.8363 0.305
    endloop
  endfacet
  facet normal 1 0 0
    outer loop
      vertex 9.175 14.45 1.90735e-07
      vertex 9.175 12.9363 0.305
      vertex 9.175 12.9363 1.90735e-07
    endloop
  endfacet
  facet normal 1 0 0
    outer loop
      vertex 9.175 -12.8363 6
      vertex 9.175 -12.9363 0.305
      vertex 9.175 -12.8363 0.305
    endloop
  endfacet
  facet normal 1 -0 0
    outer loop
      vertex 9.175 -14.45 6
      vertex 9.175 -12.9363 0.305
      vertex 9.175 -12.8363 6
    endloop
  endfacet
  facet normal 1 0 0
    outer loop
      vertex 9.175 -14.45 1.90735e-07
      vertex 9.175 -12.9363 0.305
      vertex 9.175 -14.45 6
    endloop
  endfacet
  facet normal 1 0 0
    outer loop
      vertex 9.175 -12.9363 0.305
      vertex 9.175 -14.45 1.90735e-07
      vertex 9.175 -12.9363 1.90735e-07
    endloop
  endfacet
  facet normal -1 0 0
    outer loop
      vertex -9.175 12.9363 0.305
      vertex -9.175 14.45 1.90735e-07
      vertex -9.175 12.9363 1.90735e-07
    endloop
  endfacet
  facet normal -1 0 0
    outer loop
      vertex -9.175 14.45 1.90735e-07
      vertex -9.175 12.9363 0.305
      vertex -9.175 14.45 6
    endloop
  endfacet
  facet normal -1 0 0
    outer loop
      vertex -9.175 12.8363 6
      vertex -9.175 12.9363 0.305
      vertex -9.175 12.8363 0.305
    endloop
  endfacet
  facet normal -1 0 0
    outer loop
      vertex -9.175 12.9363 0.305
      vertex -9.175 12.8363 6
      vertex -9.175 14.45 6
    endloop
  endfacet
  facet normal -1 0 0
    outer loop
      vertex -9.175 -12.9363 1.90735e-07
      vertex -9.175 -14.45 1.90735e-07
      vertex -9.175 -12.9363 0.305
    endloop
  endfacet
  facet normal -1 0 0
    outer loop
      vertex -9.175 -12.9363 0.305
      vertex -9.175 -12.8363 6
      vertex -9.175 -12.8363 0.305
    endloop
  endfacet
  facet normal -1 0 0
    outer loop
      vertex -9.175 -14.45 6
      vertex -9.175 -12.9363 0.305
      vertex -9.175 -14.45 1.90735e-07
    endloop
  endfacet
  facet normal -1 0 0
    outer loop
      vertex -9.175 -12.9363 0.305
      vertex -9.175 -14.45 6
      vertex -9.175 -12.8363 6
    endloop
  endfacet
  facet normal 1 0 0
    outer loop
      vertex -6.825 14.45 6
      vertex -6.825 12.9363 0.305
      vertex -6.825 14.45 1.90735e-07
    endloop
  endfacet
  facet normal 1 -0 0
    outer loop
      vertex -6.825 12.8363 6
      vertex -6.825 12.9363 0.305
      vertex -6.825 14.45 6
    endloop
  endfacet
  facet normal 1 0 0
    outer loop
      vertex -6.825 12.9363 0.305
      vertex -6.825 12.8363 6
      vertex -6.825 12.8363 0.305
    endloop
  endfacet
  facet normal 1 0 0
    outer loop
      vertex -6.825 14.45 1.90735e-07
      vertex -6.825 12.9363 0.305
      vertex -6.825 12.9363 1.90735e-07
    endloop
  endfacet
  facet normal 1 0 0
    outer loop
      vertex -6.825 -12.8363 6
      vertex -6.825 -12.9363 0.305
      vertex -6.825 -12.8363 0.305
    endloop
  endfacet
  facet normal 1 -0 0
    outer loop
      vertex -6.825 -14.45 6
      vertex -6.825 -12.9363 0.305
      vertex -6.825 -12.8363 6
    endloop
  endfacet
  facet normal 1 0 0
    outer loop
      vertex -6.825 -14.45 1.90735e-07
      vertex -6.825 -12.9363 0.305
      vertex -6.825 -14.45 6
    endloop
  endfacet
  facet normal 1 0 0
    outer loop
      vertex -6.825 -12.9363 0.305
      vertex -6.825 -14.45 1.90735e-07
      vertex -6.825 -12.9363 1.90735e-07
    endloop
  endfacet
  facet normal 1 -0 0
    outer loop
      vertex -12.8363 6.825 6
      vertex -12.8363 9.175 0.305
      vertex -12.8363 9.175 6
    endloop
  endfacet
  facet normal 1 0 0
    outer loop
      vertex -12.8363 9.175 0.305
      vertex -12.8363 6.825 6
      vertex -12.8363 6.825 0.305
    endloop
  endfacet
  facet normal 1 -0 0
    outer loop
      vertex -12.8363 -9.175 6
      vertex -12.8363 -6.825 0.305
      vertex -12.8363 -6.825 6
    endloop
  endfacet
  facet normal 1 0 0
    outer loop
      vertex -12.8363 -6.825 0.305
      vertex -12.8363 -9.175 6
      vertex -12.8363 -9.175 0.305
    endloop
  endfacet
  facet normal -1 0 0
    outer loop
      vertex 12.8363 6.825 0.305
      vertex 12.8363 9.175 6
      vertex 12.8363 9.175 0.305
    endloop
  endfacet
  facet normal -1 -0 0
    outer loop
      vertex 12.8363 9.175 6
      vertex 12.8363 6.825 0.305
      vertex 12.8363 6.825 6
    endloop
  endfacet
  facet normal -1 0 0
    outer loop
      vertex 12.8363 -9.175 0.305
      vertex 12.8363 -6.825 6
      vertex 12.8363 -6.825 0.305
    endloop
  endfacet
  facet normal -1 -0 0
    outer loop
      vertex 12.8363 -6.825 6
      vertex 12.8363 -9.175 0.305
      vertex 12.8363 -9.175 6
    endloop
  endfacet
  facet normal 0 -1 0
    outer loop
      vertex -9.175 12.8363 0.305
      vertex -6.825 12.8363 6
      vertex -9.175 12.8363 6
    endloop
  endfacet
  facet normal 0 -1 -0
    outer loop
      vertex -6.825 12.8363 6
      vertex -9.175 12.8363 0.305
      vertex -6.825 12.8363 0.305
    endloop
  endfacet
  facet normal 0 -1 0
    outer loop
      vertex 6.825 12.8363 0.305
      vertex 9.175 12.8363 6
      vertex 6.825 12.8363 6
    endloop
  endfacet
  facet normal 0 -1 -0
    outer loop
      vertex 9.175 12.8363 6
      vertex 6.825 12.8363 0.305
      vertex 9.175 12.8363 0.305
    endloop
  endfacet
  facet normal 0 1 -0
    outer loop
      vertex -6.825 -12.8363 0.305
      vertex -9.175 -12.8363 6
      vertex -6.825 -12.8363 6
    endloop
  endfacet
  facet normal 0 1 0
    outer loop
      vertex -9.175 -12.8363 6
      vertex -6.825 -12.8363 0.305
      vertex -9.175 -12.8363 0.305
    endloop
  endfacet
  facet normal 0 1 -0
    outer loop
      vertex 9.175 -12.8363 0.305
      vertex 6.825 -12.8363 6
      vertex 9.175 -12.8363 6
    endloop
  endfacet
  facet normal 0 1 0
    outer loop
      vertex 6.825 -12.8363 6
      vertex 9.175 -12.8363 0.305
      vertex 6.825 -12.8363 0.305
    endloop
  endfacet
  facet normal 1 -0 0
    outer loop
      vertex -12.9363 -9.175 0.305
      vertex -12.9363 -6.825 1.90735e-07
      vertex -12.9363 -6.825 0.305
    endloop
  endfacet
  facet normal 1 0 0
    outer loop
      vertex -12.9363 -6.825 1.90735e-07
      vertex -12.9363 -9.175 0.305
      vertex -12.9363 -9.175 1.90735e-07
    endloop
  endfacet
  facet normal 1 -0 0
    outer loop
      vertex -12.9363 6.825 0.305
      vertex -12.9363 9.175 1.90735e-07
      vertex -12.9363 9.175 0.305
    endloop
  endfacet
  facet normal 1 0 0
    outer loop
      vertex -12.9363 9.175 1.90735e-07
      vertex -12.9363 6.825 0.305
      vertex -12.9363 6.825 1.90735e-07
    endloop
  endfacet
  facet normal 0 0 -1
    outer loop
      vertex -12.9363 6.825 0.305
      vertex -12.8363 9.175 0.305
      vertex -12.8363 6.825 0.305
    endloop
  endfacet
  facet normal -0 0 -1
    outer loop
      vertex -12.8363 9.175 0.305
      vertex -12.9363 6.825 0.305
      vertex -12.9363 9.175 0.305
    endloop
  endfacet
  facet normal 0 0 -1
    outer loop
      vertex -12.9363 -9.175 0.305
      vertex -12.8363 -6.825 0.305
      vertex -12.8363 -9.175 0.305
    endloop
  endfacet
  facet normal -0 0 -1
    outer loop
      vertex -12.8363 -6.825 0.305
      vertex -12.9363 -9.175 0.305
      vertex -12.9363 -6.825 0.305
    endloop
  endfacet
  facet normal 0 0 -1
    outer loop
      vertex -9.175 -12.9363 0.305
      vertex -6.825 -12.8363 0.305
      vertex -6.825 -12.9363 0.305
    endloop
  endfacet
  facet normal -0 0 -1
    outer loop
      vertex -6.825 -12.8363 0.305
      vertex -9.175 -12.9363 0.305
      vertex -9.175 -12.8363 0.305
    endloop
  endfacet
  facet normal 0 0 -1
    outer loop
      vertex 6.825 -12.9363 0.305
      vertex 9.175 -12.8363 0.305
      vertex 9.175 -12.9363 0.305
    endloop
  endfacet
  facet normal -0 0 -1
    outer loop
      vertex 9.175 -12.8363 0.305
      vertex 6.825 -12.9363 0.305
      vertex 6.825 -12.8363 0.305
    endloop
  endfacet
  facet normal 0 0 -1
    outer loop
      vertex -9.175 12.8363 0.305
      vertex -6.825 12.9363 0.305
      vertex -6.825 12.8363 0.305
    endloop
  endfacet
  facet normal -0 0 -1
    outer loop
      vertex -6.825 12.9363 0.305
      vertex -9.175 12.8363 0.305
      vertex -9.175 12.9363 0.305
    endloop
  endfacet
  facet normal 0 0 -1
    outer loop
      vertex 6.825 12.8363 0.305
      vertex 9.175 12.9363 0.305
      vertex 9.175 12.8363 0.305
    endloop
  endfacet
  facet normal -0 0 -1
    outer loop
      vertex 9.175 12.9363 0.305
      vertex 6.825 12.8363 0.305
      vertex 6.825 12.9363 0.305
    endloop
  endfacet
  facet normal 0 0 -1
    outer loop
      vertex 12.8363 6.825 0.305
      vertex 12.9363 9.175 0.305
      vertex 12.9363 6.825 0.305
    endloop
  endfacet
  facet normal -0 0 -1
    outer loop
      vertex 12.9363 9.175 0.305
      vertex 12.8363 6.825 0.305
      vertex 12.8363 9.175 0.305
    endloop
  endfacet
  facet normal 0 0 -1
    outer loop
      vertex 12.8363 -9.175 0.305
      vertex 12.9363 -6.825 0.305
      vertex 12.9363 -9.175 0.305
    endloop
  endfacet
  facet normal -0 0 -1
    outer loop
      vertex 12.9363 -6.825 0.305
      vertex 12.8363 -9.175 0.305
      vertex 12.8363 -6.825 0.305
    endloop
  endfacet
  facet normal -1 0 0
    outer loop
      vertex 12.9363 -9.175 1.90735e-07
      vertex 12.9363 -6.825 0.305
      vertex 12.9363 -6.825 1.90735e-07
    endloop
  endfacet
  facet normal -1 -0 0
    outer loop
      vertex 12.9363 -6.825 0.305
      vertex 12.9363 -9.175 1.90735e-07
      vertex 12.9363 -9.175 0.305
    endloop
  endfacet
  facet normal -1 0 0
    outer loop
      vertex 12.9363 6.825 1.90735e-07
      vertex 12.9363 9.175 0.305
      vertex 12.9363 9.175 1.90735e-07
    endloop
  endfacet
  facet normal -1 -0 0
    outer loop
      vertex 12.9363 9.175 0.305
      vertex 12.9363 6.825 1.90735e-07
      vertex 12.9363 6.825 0.305
    endloop
  endfacet
  facet normal 0 -1 0
    outer loop
      vertex -9.175 12.9363 1.90735e-07
      vertex -6.825 12.9363 0.305
      vertex -9.175 12.9363 0.305
    endloop
  endfacet
  facet normal 0 -1 -0
    outer loop
      vertex -6.825 12.9363 0.305
      vertex -9.175 12.9363 1.90735e-07
      vertex -6.825 12.9363 1.90735e-07
    endloop
  endfacet
  facet normal 0 -1 0
    outer loop
      vertex 6.825 12.9363 1.90735e-07
      vertex 9.175 12.9363 0.305
      vertex 6.825 12.9363 0.305
    endloop
  endfacet
  facet normal 0 -1 -0
    outer loop
      vertex 9.175 12.9363 0.305
      vertex 6.825 12.9363 1.90735e-07
      vertex 9.175 12.9363 1.90735e-07
    endloop
  endfacet
  facet normal 0 1 -0
    outer loop
      vertex -6.825 -12.9363 1.90735e-07
      vertex -9.175 -12.9363 0.305
      vertex -6.825 -12.9363 0.305
    endloop
  endfacet
  facet normal 0 1 0
    outer loop
      vertex -9.175 -12.9363 0.305
      vertex -6.825 -12.9363 1.90735e-07
      vertex -9.175 -12.9363 1.90735e-07
    endloop
  endfacet
  facet normal 0 1 -0
    outer loop
      vertex 9.175 -12.9363 1.90735e-07
      vertex 6.825 -12.9363 0.305
      vertex 9.175 -12.9363 0.305
    endloop
  endfacet
  facet normal 0 1 0
    outer loop
      vertex 6.825 -12.9363 0.305
      vertex 9.175 -12.9363 1.90735e-07
      vertex 6.825 -12.9363 1.90735e-07
    endloop
  endfacet
  facet normal 0 0 -1
    outer loop
      vertex 14.45 -14.45 6
      vertex 12.8363 -9.175 6
      vertex 14.45 -9.175 6
    endloop
  endfacet
  facet normal 0 0 -1
    outer loop
      vertex 5.36165 -3.89546 6
      vertex 12.8363 -6.825 6
      vertex 12.8363 -9.175 6
    endloop
  endfacet
  facet normal 0 0 -1
    outer loop
      vertex 12.8363 -6.825 6
      vertex 6.62736 0 6
      vertex 12.8363 6.825 6
    endloop
  endfacet
  facet normal 0 0 -1
    outer loop
      vertex 14.45 -14.45 6
      vertex 9.175 -12.8363 6
      vertex 12.8363 -9.175 6
    endloop
  endfacet
  facet normal 0 0 -1
    outer loop
      vertex 9.175 -12.8363 6
      vertex 14.45 -14.45 6
      vertex 9.175 -14.45 6
    endloop
  endfacet
  facet normal 0 0 -1
    outer loop
      vertex 12.8363 -6.825 6
      vertex 14.45 6.825 6
      vertex 14.45 -6.825 6
    endloop
  endfacet
  facet normal -0 0 -1
    outer loop
      vertex 14.45 6.825 6
      vertex 12.8363 -6.825 6
      vertex 12.8363 6.825 6
    endloop
  endfacet
  facet normal 0 0 -1
    outer loop
      vertex 12.8363 9.175 6
      vertex 14.45 14.45 6
      vertex 14.45 9.175 6
    endloop
  endfacet
  facet normal 0 0 -1
    outer loop
      vertex 6.825 -12.8363 6
      vertex 12.8363 -9.175 6
      vertex 9.175 -12.8363 6
    endloop
  endfacet
  facet normal 0 0 -1
    outer loop
      vertex 5.36165 -3.89546 6
      vertex 12.8363 -9.175 6
      vertex 6.825 -12.8363 6
    endloop
  endfacet
  facet normal 0 0 -1
    outer loop
      vertex 9.175 12.8363 6
      vertex 14.45 14.45 6
      vertex 12.8363 9.175 6
    endloop
  endfacet
  facet normal -0 0 -1
    outer loop
      vertex 14.45 14.45 6
      vertex 9.175 12.8363 6
      vertex 9.175 14.45 6
    endloop
  endfacet
  facet normal 0 0 -1
    outer loop
      vertex -14.45 -6.825 6
      vertex -12.8363 6.825 6
      vertex -12.8363 -6.825 6
    endloop
  endfacet
  facet normal -0 0 -1
    outer loop
      vertex -12.8363 6.825 6
      vertex -14.45 -6.825 6
      vertex -14.45 6.825 6
    endloop
  endfacet
  facet normal 0 0 -1
    outer loop
      vertex -14.45 -14.45 6
      vertex -9.175 -12.8363 6
      vertex -9.175 -14.45 6
    endloop
  endfacet
  facet normal 0 0 -1
    outer loop
      vertex -9.175 -12.8363 6
      vertex -12.8363 -6.825 6
      vertex -9.175 12.8363 6
    endloop
  endfacet
  facet normal 0 0 -1
    outer loop
      vertex -9.175 -12.8363 6
      vertex -12.8363 -9.175 6
      vertex -12.8363 -6.825 6
    endloop
  endfacet
  facet normal -0 0 -1
    outer loop
      vertex -9.175 -12.8363 6
      vertex -14.45 -14.45 6
      vertex -12.8363 -9.175 6
    endloop
  endfacet
  facet normal -0 0 -1
    outer loop
      vertex -12.8363 -9.175 6
      vertex -14.45 -14.45 6
      vertex -14.45 -9.175 6
    endloop
  endfacet
  facet normal 0 0 -1
    outer loop
      vertex -9.175 12.8363 6
      vertex -6.62736 0 6
      vertex -9.175 -12.8363 6
    endloop
  endfacet
  facet normal 0 0 -1
    outer loop
      vertex -6.62736 0 6
      vertex -9.175 12.8363 6
      vertex -6.825 12.8363 6
    endloop
  endfacet
  facet normal 0 0 -1
    outer loop
      vertex -12.8363 6.825 6
      vertex -9.175 12.8363 6
      vertex -12.8363 -6.825 6
    endloop
  endfacet
  facet normal 0 0 -1
    outer loop
      vertex -12.8363 9.175 6
      vertex -9.175 12.8363 6
      vertex -12.8363 6.825 6
    endloop
  endfacet
  facet normal 0 0 -1
    outer loop
      vertex -14.45 14.45 6
      vertex -9.175 12.8363 6
      vertex -12.8363 9.175 6
    endloop
  endfacet
  facet normal 0 0 -1
    outer loop
      vertex -14.45 14.45 6
      vertex -12.8363 9.175 6
      vertex -14.45 9.175 6
    endloop
  endfacet
  facet normal 0 0 -1
    outer loop
      vertex -9.175 12.8363 6
      vertex -14.45 14.45 6
      vertex -9.175 14.45 6
    endloop
  endfacet
  facet normal 0 0 -1
    outer loop
      vertex -6.825 -12.8363 6
      vertex 6.825 -12.8363 6
      vertex 6.825 -14.45 6
    endloop
  endfacet
  facet normal -0 0 -1
    outer loop
      vertex 12.8363 6.825 6
      vertex 5.36165 3.89546 6
      vertex 12.8363 9.175 6
    endloop
  endfacet
  facet normal -0 0 -1
    outer loop
      vertex 12.8363 9.175 6
      vertex 5.36165 3.89546 6
      vertex 6.825 12.8363 6
    endloop
  endfacet
  facet normal 0 0 -1
    outer loop
      vertex 12.8363 -6.825 6
      vertex 5.36165 -3.89546 6
      vertex 6.62736 0 6
    endloop
  endfacet
  facet normal 0 0 -1
    outer loop
      vertex 6.825 -12.8363 6
      vertex 2.04797 -6.30299 6
      vertex 5.36165 -3.89546 6
    endloop
  endfacet
  facet normal 0 0 -1
    outer loop
      vertex 6.825 -12.8363 6
      vertex -6.825 -12.8363 6
      vertex 2.04797 -6.30299 6
    endloop
  endfacet
  facet normal -0 0 -1
    outer loop
      vertex 2.04797 -6.30299 6
      vertex -6.825 -12.8363 6
      vertex -2.04797 -6.30299 6
    endloop
  endfacet
  facet normal -0 0 -1
    outer loop
      vertex -2.04797 -6.30299 6
      vertex -6.825 -12.8363 6
      vertex -5.36165 -3.89546 6
    endloop
  endfacet
  facet normal 0 0 -1
    outer loop
      vertex -6.825 -12.8363 6
      vertex 6.825 -14.45 6
      vertex -6.825 -14.45 6
    endloop
  endfacet
  facet normal 0 0 -1
    outer loop
      vertex 5.36165 3.89546 6
      vertex 12.8363 6.825 6
      vertex 6.62736 0 6
    endloop
  endfacet
  facet normal 0 0 -1
    outer loop
      vertex 12.8363 9.175 6
      vertex 6.825 12.8363 6
      vertex 9.175 12.8363 6
    endloop
  endfacet
  facet normal 0 0 -1
    outer loop
      vertex 2.04797 6.30299 6
      vertex 6.825 12.8363 6
      vertex 5.36165 3.89546 6
    endloop
  endfacet
  facet normal 0 0 -1
    outer loop
      vertex -6.825 12.8363 6
      vertex 6.825 12.8363 6
      vertex 2.04797 6.30299 6
    endloop
  endfacet
  facet normal 0 0 -1
    outer loop
      vertex -6.825 12.8363 6
      vertex 2.04797 6.30299 6
      vertex -2.04797 6.30299 6
    endloop
  endfacet
  facet normal 0 0 -1
    outer loop
      vertex -6.825 12.8363 6
      vertex -2.04797 6.30299 6
      vertex -5.36165 3.89546 6
    endloop
  endfacet
  facet normal 0 0 -1
    outer loop
      vertex -9.175 -12.8363 6
      vertex -5.36165 -3.89546 6
      vertex -6.825 -12.8363 6
    endloop
  endfacet
  facet normal -0 0 -1
    outer loop
      vertex -5.36165 -3.89546 6
      vertex -9.175 -12.8363 6
      vertex -6.62736 0 6
    endloop
  endfacet
  facet normal 0 0 -1
    outer loop
      vertex -6.825 12.8363 6
      vertex -5.36165 3.89546 6
      vertex -6.62736 0 6
    endloop
  endfacet
  facet normal 0 0 -1
    outer loop
      vertex 6.825 12.8363 6
      vertex -6.825 12.8363 6
      vertex 6.825 14.45 6
    endloop
  endfacet
  facet normal -0 0 -1
    outer loop
      vertex 6.825 14.45 6
      vertex -6.825 12.8363 6
      vertex -6.825 14.45 6
    endloop
  endfacet
  facet normal 0 0 -1
    outer loop
      vertex 4.30992 -3.13134 6
      vertex 4.30992 3.13134 6
      vertex 5.32736 0 6
    endloop
  endfacet
  facet normal 0 0 -1
    outer loop
      vertex 1.64624 -5.06662 6
      vertex 4.30992 3.13134 6
      vertex 4.30992 -3.13134 6
    endloop
  endfacet
  facet normal 0 0 -1
    outer loop
      vertex 1.64624 -5.06662 6
      vertex 1.64624 5.06662 6
      vertex 4.30992 3.13134 6
    endloop
  endfacet
  facet normal 0 0 -1
    outer loop
      vertex -1.64624 -5.06662 6
      vertex 1.64624 5.06662 6
      vertex 1.64624 -5.06662 6
    endloop
  endfacet
  facet normal 0 0 -1
    outer loop
      vertex -1.64624 -5.06662 6
      vertex -1.64624 5.06662 6
      vertex 1.64624 5.06662 6
    endloop
  endfacet
  facet normal 0 0 -1
    outer loop
      vertex -4.30992 -3.13134 6
      vertex -1.64624 5.06662 6
      vertex -1.64624 -5.06662 6
    endloop
  endfacet
  facet normal 0 0 -1
    outer loop
      vertex -4.30992 -3.13134 6
      vertex -4.30992 3.13134 6
      vertex -1.64624 5.06662 6
    endloop
  endfacet
  facet normal 0 -0 -1
    outer loop
      vertex -4.30992 3.13134 6
      vertex -4.30992 -3.13134 6
      vertex -5.32736 0 6
    endloop
  endfacet
  facet normal 0.983366 -0.0934499 0.155748
    outer loop
      vertex -13.7783 -15.85 19.2898
      vertex -13.3517 15.85 35.6167
      vertex -13.7783 15.85 38.31
    endloop
  endfacet
  facet normal 0.983367 -0.0934496 0.155748
    outer loop
      vertex -13.3517 15.85 35.6167
      vertex -13.7783 -15.85 19.2898
      vertex -13.7342 -15.85 19.0115
    endloop
  endfacet
  facet normal 0.134578 -0.509819 0.84969
    outer loop
      vertex -0.574402 15.85 25.8008
      vertex 0 -15.85 6.68966
      vertex 0 15.85 25.7098
    endloop
  endfacet
  facet normal 0.134579 -0.509819 0.84969
    outer loop
      vertex 0 -15.85 6.68966
      vertex -0.574402 15.85 25.8008
      vertex -3.05968 -15.85 7.17427
    endloop
  endfacet
  facet normal -0.400371 -0.471463 0.785764
    outer loop
      vertex 4.32624 15.85 26.3951
      vertex 8.22899 -15.85 9.36345
      vertex 8.22899 15.85 28.3836
    endloop
  endfacet
  facet normal -0.400371 -0.471463 0.785764
    outer loop
      vertex 8.22899 -15.85 9.36345
      vertex 4.32624 15.85 26.3951
      vertex 4.32624 -15.85 7.37488
    endloop
  endfacet
  facet normal 0.134579 -0.509819 0.84969
    outer loop
      vertex -4.32624 15.85 26.3951
      vertex -3.05968 -15.85 7.17427
      vertex -0.574402 15.85 25.8008
    endloop
  endfacet
  facet normal 0.134579 -0.509819 0.84969
    outer loop
      vertex -3.05968 -15.85 7.17427
      vertex -4.32624 15.85 26.3951
      vertex -4.32624 -15.85 7.37488
    endloop
  endfacet
  facet normal 0.983366 -0.0934507 0.15575
    outer loop
      vertex -13.7342 -15.85 19.0115
      vertex -13.3148 15.85 35.3837
      vertex -13.3517 15.85 35.6167
    endloop
  endfacet
  facet normal 0.983366 -0.09345 0.155748
    outer loop
      vertex -13.3148 15.85 35.3837
      vertex -13.7342 -15.85 19.0115
      vertex -13.3148 -15.85 16.3635
    endloop
  endfacet
  facet normal 0.400371 -0.471463 0.785764
    outer loop
      vertex -8.22899 15.85 28.3836
      vertex -4.32624 -15.85 7.37488
      vertex -4.32624 15.85 26.3951
    endloop
  endfacet
  facet normal 0.400371 -0.471463 0.785764
    outer loop
      vertex -4.32624 -15.85 7.37488
      vertex -8.22899 15.85 28.3836
      vertex -8.22899 -15.85 9.36345
    endloop
  endfacet
  facet normal -0.134578 -0.509819 0.84969
    outer loop
      vertex 0 -15.85 6.68966
      vertex 0.574402 15.85 25.8008
      vertex 0 15.85 25.7098
    endloop
  endfacet
  facet normal -0.134579 -0.509819 0.84969
    outer loop
      vertex 0.574402 15.85 25.8008
      vertex 0 -15.85 6.68966
      vertex 3.05968 -15.85 7.17427
    endloop
  endfacet
  facet normal -0.650948 -0.390568 0.650941
    outer loop
      vertex 11.3262 -15.85 12.4607
      vertex 8.22899 15.85 28.3836
      vertex 8.22899 -15.85 9.36345
    endloop
  endfacet
  facet normal -0.650948 -0.390568 0.650941
    outer loop
      vertex 8.22899 15.85 28.3836
      vertex 11.3262 -15.85 12.4607
      vertex 11.3262 15.85 31.4809
    endloop
  endfacet
  facet normal -0.983367 -0.0934496 0.155748
    outer loop
      vertex 13.7783 -15.85 19.2898
      vertex 13.3517 15.85 35.6167
      vertex 13.7342 -15.85 19.0115
    endloop
  endfacet
  facet normal -0.983366 -0.0934499 0.155748
    outer loop
      vertex 13.3517 15.85 35.6167
      vertex 13.7783 -15.85 19.2898
      vertex 13.7783 15.85 38.31
    endloop
  endfacet
  facet normal 0.650948 -0.390568 0.650941
    outer loop
      vertex -11.3262 -15.85 12.4607
      vertex -8.22899 15.85 28.3836
      vertex -11.3262 15.85 31.4809
    endloop
  endfacet
  facet normal 0.650948 -0.390568 0.650941
    outer loop
      vertex -8.22899 15.85 28.3836
      vertex -11.3262 -15.85 12.4607
      vertex -8.22899 -15.85 9.36345
    endloop
  endfacet
  facet normal 0.859685 -0.262819 0.438027
    outer loop
      vertex -13.3148 -15.85 16.3635
      vertex -11.3262 15.85 31.4809
      vertex -13.3148 15.85 35.3837
    endloop
  endfacet
  facet normal 0.859685 -0.262819 0.438027
    outer loop
      vertex -11.3262 15.85 31.4809
      vertex -13.3148 -15.85 16.3635
      vertex -11.3262 -15.85 12.4607
    endloop
  endfacet
  facet normal -0.134579 -0.509819 0.84969
    outer loop
      vertex 4.32624 15.85 26.3951
      vertex 3.05968 -15.85 7.17427
      vertex 4.32624 -15.85 7.37488
    endloop
  endfacet
  facet normal -0.134579 -0.509819 0.84969
    outer loop
      vertex 3.05968 -15.85 7.17427
      vertex 4.32624 15.85 26.3951
      vertex 0.574402 15.85 25.8008
    endloop
  endfacet
  facet normal -0.859685 -0.262819 0.438027
    outer loop
      vertex 13.3148 -15.85 16.3635
      vertex 11.3262 15.85 31.4809
      vertex 11.3262 -15.85 12.4607
    endloop
  endfacet
  facet normal -0.859685 -0.262819 0.438027
    outer loop
      vertex 11.3262 15.85 31.4809
      vertex 13.3148 -15.85 16.3635
      vertex 13.3148 15.85 35.3837
    endloop
  endfacet
  facet normal -0.983366 -0.09345 0.155748
    outer loop
      vertex 13.7342 -15.85 19.0115
      vertex 13.3148 15.85 35.3837
      vertex 13.3148 -15.85 16.3635
    endloop
  endfacet
  facet normal -0.983366 -0.0934507 0.15575
    outer loop
      vertex 13.3148 15.85 35.3837
      vertex 13.7342 -15.85 19.0115
      vertex 13.3517 15.85 35.6167
    endloop
  endfacet
  facet normal 0 -0.514499 0.857491
    outer loop
      vertex -15.85 15.85 38.31
      vertex -13.7783 -15.85 19.2898
      vertex -13.7783 15.85 38.31
    endloop
  endfacet
  facet normal 0 -0.514499 0.857491
    outer loop
      vertex -13.7783 -15.85 19.2898
      vertex -15.85 15.85 38.31
      vertex -15.85 -15.85 19.2898
    endloop
  endfacet
  facet normal 0 -0.514499 0.857491
    outer loop
      vertex 13.7783 15.85 38.31
      vertex 15.85 -15.85 19.2898
      vertex 15.85 15.85 38.31
    endloop
  endfacet
  facet normal 0 -0.514499 0.857491
    outer loop
      vertex 15.85 -15.85 19.2898
      vertex 13.7783 15.85 38.31
      vertex 13.7783 -15.85 19.2898
    endloop
  endfacet
endsolid OpenSCAD_Model
